<svg xmlns="http://www.w3.org/2000/svg" viewBox="0 0 760 190" role="img" aria-labelledby="title desc">
  <title id="title">design-interview logo</title>
  <desc id="desc">design-interview wordmark with a flat split preview-page mark: copper AI-slop pane, teal built pane, and a warm preserved-claim core at the interview gate.</desc>

  <rect x="1" y="1" width="758" height="188" rx="48" fill="#020617" stroke="#1e293b" stroke-width="2"/>

  <g transform="translate(24 24) scale(0.27734375)" aria-hidden="true">
    <rect width="512" height="512" rx="112" fill="#020617"/>
    <path d="M256 132 H126 a30 30 0 0 0 -30 30 V350 a30 30 0 0 0 30 30 H256 Z" fill="#c46a2a"/>
    <g fill="#6b3410">
      <rect x="128" y="168" width="96" height="16" rx="8"/>
      <rect x="140" y="206" width="72" height="11" rx="5.5"/>
      <rect x="140" y="228" width="72" height="11" rx="5.5"/>
      <rect x="140" y="250" width="72" height="11" rx="5.5"/>
    </g>
    <path d="M256 132 H386 a30 30 0 0 1 30 30 V350 a30 30 0 0 1 -30 30 H256 Z" fill="#2dd4bf"/>
    <g fill="#063b30">
      <rect x="298" y="164" width="84" height="22" rx="8"/>
      <rect x="298" y="206" width="58" height="10" rx="5"/>
      <rect x="298" y="226" width="92" height="10" rx="5"/>
      <rect x="298" y="300" width="46" height="12" rx="6"/>
    </g>
    <circle cx="256" cy="256" r="36" fill="#ffe6a8" stroke="#020617" stroke-width="12"/>
  </g>

  <text x="198" y="92" font-family="Inter, ui-sans-serif, system-ui, -apple-system, BlinkMacSystemFont, 'Segoe UI', sans-serif" font-size="56" font-weight="800" letter-spacing="-2.5"><tspan fill="#f8fafc">design</tspan><tspan fill="#5eead4">-interview</tspan></text>
  <path d="M200 112 H486" stroke="#2dd4bf" stroke-width="3" stroke-linecap="round"/>
  <path d="M498 112 H586" stroke="#c46a2a" stroke-width="3" stroke-linecap="round"/>
  <text x="200" y="146" fill="#94a3b8" font-family="Inter, ui-sans-serif, system-ui, -apple-system, BlinkMacSystemFont, 'Segoe UI', sans-serif" font-size="20" font-weight="600" letter-spacing="0.2">Interview-driven page tailoring &#8212; no AI slop.</text>
</svg>
