<svg xmlns="http://www.w3.org/2000/svg" viewBox="0 0 760 190" role="img" aria-labelledby="title desc">
  <title id="title">design-interview logo</title>
  <desc id="desc">design-interview wordmark with an Eye of Horus (wedjat) tile: copper slop brow, teal discerning eye, warm preserved-claim pupil, copper restoring tail.</desc>

  <rect x="1" y="1" width="758" height="188" rx="48" fill="#020617" stroke="#1e293b" stroke-width="2"/>

  <g transform="translate(24 24) scale(0.27734375)" aria-hidden="true">
    <rect width="512" height="512" rx="112" fill="#020617"/>
    <path d="M130 160 Q256 92 406 142" fill="none" stroke="#c46a2a" stroke-width="28" stroke-linecap="round"/>
    <path d="M112 250 Q210 176 320 182 Q380 188 414 206 Q360 256 286 290 Q190 300 112 250 Z" fill="none" stroke="#2dd4bf" stroke-width="24" stroke-linejoin="round"/>
    <path d="M226 300 L221 392" fill="none" stroke="#2dd4bf" stroke-width="22" stroke-linecap="round"/>
    <path d="M292 296 C362 312 396 360 374 400 C356 434 306 432 296 402 C289 382 308 366 328 378" fill="none" stroke="#c46a2a" stroke-width="22" stroke-linecap="round"/>
    <circle cx="268" cy="236" r="34" fill="#ffe6a8" stroke="#020617" stroke-width="12"/>
  </g>

  <text x="198" y="92" font-family="Inter, ui-sans-serif, system-ui, -apple-system, BlinkMacSystemFont, 'Segoe UI', sans-serif" font-size="56" font-weight="800" letter-spacing="-2.5"><tspan fill="#f8fafc">design</tspan><tspan fill="#5eead4">-interview</tspan></text>
  <path d="M200 112 H486" stroke="#2dd4bf" stroke-width="3" stroke-linecap="round"/>
  <path d="M498 112 H586" stroke="#c46a2a" stroke-width="3" stroke-linecap="round"/>
  <text x="200" y="146" fill="#94a3b8" font-family="Inter, ui-sans-serif, system-ui, -apple-system, BlinkMacSystemFont, 'Segoe UI', sans-serif" font-size="20" font-weight="600" letter-spacing="0.2">Interview-driven page tailoring &#8212; no AI slop.</text>
</svg>
